<svg xmlns="http://www.w3.org/2000/svg" width="200" height="200" viewBox="0 0 200 200">
  <rect width="200" height="200" fill="transparent"/>
  <g fill="rgba(255,255,255,0.45)">
    <circle cx="20" cy="20" r="2"/>
    <circle cx="60" cy="20" r="2"/>
    <circle cx="100" cy="20" r="2"/>
    <circle cx="140" cy="20" r="2"/>
    <circle cx="180" cy="20" r="2"/>
    <circle cx="20" cy="60" r="2"/>
    <circle cx="60" cy="60" r="2"/>
    <circle cx="100" cy="60" r="2"/>
    <circle cx="140" cy="60" r="2"/>
    <circle cx="180" cy="60" r="2"/>
    <circle cx="20" cy="100" r="2"/>
    <circle cx="60" cy="100" r="2"/>
    <circle cx="100" cy="100" r="2"/>
    <circle cx="140" cy="100" r="2"/>
    <circle cx="180" cy="100" r="2"/>
    <circle cx="20" cy="140" r="2"/>
    <circle cx="60" cy="140" r="2"/>
    <circle cx="100" cy="140" r="2"/>
    <circle cx="140" cy="140" r="2"/>
    <circle cx="180" cy="140" r="2"/>
    <circle cx="20" cy="180" r="2"/>
    <circle cx="60" cy="180" r="2"/>
    <circle cx="100" cy="180" r="2"/>
    <circle cx="140" cy="180" r="2"/>
    <circle cx="180" cy="180" r="2"/>
  </g>
</svg>
